<svg xmlns="http://www.w3.org/2000/svg" viewBox="0 0 64 64">
  <title>Park Soccer favicon</title>
  <defs>
    <linearGradient id="grass" x1="0" x2="0" y1="0" y2="1">
      <stop offset="0" stop-color="#06d6a0"/>
      <stop offset="1" stop-color="#118ab2"/>
    </linearGradient>
  </defs>

  <circle cx="32" cy="32" r="32" fill="#073b4c"/>
  <circle cx="32" cy="32" r="28" fill="url(#grass)"/>

  <path d="M15 14h34v36H15z" fill="none" stroke="#e9fff7" stroke-width="2.2" opacity=".9"/>
  <path d="M22 14v10h20V14M22 50V40h20v10M15 32h34" fill="none" stroke="#e9fff7" stroke-width="1.8" opacity=".78"/>
  <circle cx="32" cy="32" r="8" fill="none" stroke="#e9fff7" stroke-width="1.8" opacity=".78"/>

  <circle cx="32" cy="37" r="13" fill="#fff"/>
  <path d="M32 27l7 5-3 8h-8l-3-8z" fill="#101820"/>
  <path d="M25 32l-6-2M39 32l6-2M28 40l-4 6M36 40l4 6M32 27v-5" fill="none" stroke="#101820" stroke-width="2" stroke-linecap="round"/>
  <circle cx="32" cy="37" r="13" fill="none" stroke="#073b4c" stroke-width="2"/>
</svg>
